# xmcd
#
# Track frame offsets: 
#        150
#        15928
#        36303
#        51518
#        67079
#        84314
#        105251
#        119224
#        144292
#        160332
#        178851
#        195644
#        208841
#
# Disc length: 3125 seconds
#
# Revision: 0
# Processed by: cddbd v1.5.2PL0 Copyright (c) Steve Scherf et al.
# Submitted via: ExactAudioCopyFreeDBPlugin 1.0
#
DISCID=b90c330d
DTITLE=Ben Hunter and Joe Seamons - The North Wind and The Sun
DYEAR=2016
DGENRE=Blues
TTITLE0=Black and Tan Fantasy
TTITLE1=Do You Call That Religion (feat. Forrest Marowitz)
TTITLE2=Beale St. Mess Around (feat. Sean Divine)
TTITLE3=Old Shady
TTITLE4=The Longest Train I Ever Saw
TTITLE5=Kansas City Moan (feat. Forrest Marowitz and Sean Divine)
TTITLE6=Hell's Broke Loose in Georgia (feat. Forrest Marowitz)
TTITLE7=River of Jordan
TTITLE8=Old Rub Alcohol Blues (feat. Forrest Marowitz)
TTITLE9=Captain Haney Blues
TTITLE10=What Are They Doing in Heaven Today
TTITLE11=Molly Put the Kettle On (feat. Sean Divine)
TTITLE12=Sinnerman (feat. Sean Divine and Forrest Marowitz)
EXTD=
EXTT0=
EXTT1=
EXTT2=
EXTT3=
EXTT4=
EXTT5=
EXTT6=
EXTT7=
EXTT8=
EXTT9=
EXTT10=
EXTT11=
EXTT12=
PLAYORDER=
